<svg width="91" height="17" viewBox="0 0 91 17" fill="none" xmlns="http://www.w3.org/2000/svg">
<path d="M7.93048 5.57L7.62148 8.5H5.27948V17H1.76148V8.5H0.00848389V5.57H1.76148V3.806C1.76148 1.423 2.75248 0 5.56948 0H7.91048V2.93H6.44548C5.35248 2.93 5.27948 3.343 5.27948 4.106V5.57H7.93048Z" fill="white"/>
<path d="M49.1835 5.03756C49.1945 5.18856 49.1945 5.33956 49.1945 5.49156C49.1945 10.0966 45.6885 15.4036 39.2815 15.4036C37.3075 15.4036 35.4735 14.8316 33.9305 13.8396C34.2115 13.8716 34.4815 13.8816 34.7725 13.8816C36.4015 13.8816 37.8995 13.3316 39.0975 12.3936C37.5655 12.3616 36.2825 11.3576 35.8405 9.97656C36.0555 10.0086 36.2715 10.0306 36.4965 10.0306C36.8105 10.0306 37.1235 9.98756 37.4145 9.91256C35.8185 9.58856 34.6205 8.18656 34.6205 6.49356C34.6205 6.48256 34.6205 6.46056 34.6205 6.45056C35.0845 6.70856 35.6235 6.87056 36.1955 6.89256C35.2575 6.26656 34.6425 5.19856 34.6425 3.99156C34.6425 3.34456 34.8155 2.75056 35.1175 2.23256C36.8325 4.34756 39.4105 5.72856 42.3015 5.87856C42.2465 5.61956 42.2145 5.34956 42.2145 5.07956C42.2145 3.16056 43.7685 1.59656 45.6985 1.59656C46.7015 1.59656 47.6075 2.01656 48.2445 2.69656C49.0315 2.54556 49.7855 2.25456 50.4555 1.85556C50.1965 2.66456 49.6465 3.34456 48.9235 3.77456C49.6255 3.69956 50.3045 3.50556 50.9305 3.23556C50.4555 3.92556 49.8625 4.54156 49.1835 5.03756Z" fill="white"/>
<path fill-rule="evenodd" clip-rule="evenodd" d="M79.1975 0C79.3985 0.588 79.6065 1.186 79.8145 1.774C80.1185 2.656 80.3085 3.32 80.3945 3.785V6.356H81.3425V3.785L82.4905 0H81.5225L80.8775 2.495L80.2045 0H79.1975ZM83.7615 6.422C84.1985 6.422 84.5305 6.261 84.7675 5.938C84.9485 5.701 85.0325 5.321 85.0325 4.818V3.158C85.0325 2.655 84.9485 2.285 84.7675 2.048C84.5295 1.727 84.1975 1.565 83.7615 1.565C83.3335 1.565 83.0015 1.726 82.7665 2.048C82.5855 2.286 82.5005 2.656 82.5005 3.159V4.819C82.5005 5.322 82.5855 5.692 82.7665 5.939C83.0015 6.261 83.3335 6.422 83.7615 6.422ZM83.3535 2.988C83.3535 2.552 83.4865 2.334 83.7615 2.334C84.0465 2.334 84.1695 2.552 84.1695 2.988V4.98C84.1695 5.417 84.0465 5.644 83.7615 5.644C83.4865 5.644 83.3535 5.416 83.3535 4.98V2.988ZM85.7355 5.36C85.7355 5.701 85.7625 5.928 85.8105 6.071C85.8955 6.309 86.0945 6.422 86.3695 6.422C86.6845 6.422 87.0065 6.232 87.3475 5.834V6.356H88.2105V1.622H87.3475V5.236C87.1575 5.511 86.9775 5.644 86.8075 5.644C86.6935 5.644 86.6275 5.569 86.6085 5.436C86.5985 5.416 86.5985 5.303 86.5985 5.103V1.622H85.7355V5.36ZM89.0935 11.811V12.247H88.2395V11.811C88.2395 11.384 88.3825 11.165 88.6665 11.165C88.9505 11.166 89.0935 11.384 89.0935 11.811ZM90.7435 8.785C90.5725 8.035 89.9555 7.485 89.2255 7.4C87.4795 7.21 85.7145 7.21 83.9595 7.21C82.2045 7.21 80.4395 7.21 78.7035 7.4C77.9655 7.485 77.3575 8.035 77.1775 8.785C76.9405 9.847 76.9305 11.005 76.9305 12.105C76.9305 13.196 76.9305 14.362 77.1775 15.425C77.3485 16.175 77.9655 16.725 78.6955 16.801C80.4405 17 82.2055 17 83.9605 17C85.7155 17 87.4805 17 89.2265 16.801C89.9555 16.725 90.5635 16.175 90.7445 15.425C90.9815 14.363 90.9915 13.196 90.9915 12.105L90.9915 12.091V12.091C90.9905 10.9952 90.9894 9.84249 90.7435 8.785ZM79.9295 9.743H80.9435V8.851H77.9835V9.743H78.9805V15.141H79.9295V9.743ZM83.5055 15.141H82.6605V14.629C82.3185 15.018 81.9965 15.208 81.6925 15.208C81.4185 15.208 81.2185 15.094 81.1425 14.857C81.0945 14.715 81.0665 14.496 81.0665 14.165V10.456H81.9115V13.909C81.9115 14.109 81.9115 14.213 81.9205 14.242C81.9405 14.374 82.0065 14.441 82.1195 14.441C82.2915 14.441 82.4715 14.309 82.6605 14.043V10.457H83.5055V15.141ZM86.6455 14.685C86.7115 14.486 86.7315 14.174 86.7315 13.737V11.868C86.7315 11.431 86.7115 11.119 86.6455 10.929C86.5415 10.578 86.3035 10.398 85.9715 10.398C85.6585 10.398 85.3635 10.568 85.0885 10.91V8.851H84.2455V15.141H85.0885V14.685C85.3735 15.036 85.6685 15.207 85.9715 15.207C86.3035 15.207 86.5415 15.027 86.6455 14.685ZM89.9375 12.959H88.2395V13.784C88.2395 14.221 88.3825 14.438 88.6765 14.438C88.8855 14.438 89.0085 14.325 89.0565 14.097C89.0655 14.05 89.0755 13.86 89.0755 13.518H89.9385V13.642C89.9385 13.917 89.9385 14.107 89.9195 14.192C89.8995 14.381 89.8235 14.552 89.7205 14.704C89.4915 15.036 89.1415 15.207 88.6965 15.207C88.2505 15.207 87.9175 15.046 87.6715 14.723C87.4915 14.495 87.3965 14.125 87.3965 13.622V11.981C87.3965 11.478 87.4825 11.118 87.6625 10.88C87.9095 10.557 88.2415 10.396 88.6785 10.396C89.1065 10.396 89.4375 10.557 89.6835 10.88C89.8555 11.117 89.9405 11.477 89.9405 11.981V12.959H89.9375ZM85.8865 13.803V11.801C85.8865 11.384 85.7625 11.166 85.5165 11.166C85.3735 11.166 85.2315 11.232 85.0885 11.375V14.23C85.2315 14.372 85.3735 14.438 85.5165 14.438C85.7625 14.438 85.8865 14.23 85.8865 13.803Z" fill="white"/>
</svg>
